<svg id="Layer_1" xmlns="http://www.w3.org/2000/svg" width="23" height="16.391"><path fill="#00BEA4" d="M22.632 14.851l-6.476-7.022 6.48-6.493a.213.213 0 0 1 .364.149v13.22c0 .195-.238.288-.368.146zm-9.892-3.603a1.976 1.976 0 0 1-1.402.582h-.016c-.535 0-1.05-.212-1.429-.591L7.975 9.323l-6.587 6.705a.213.213 0 0 0 .151.362h20a.213.213 0 0 0 .158-.357l-6.596-7.149-2.361 2.364zm-1.42-.906a.536.536 0 0 0 .377-.156L21.502.364a.213.213 0 0 0-.15-.364H1.258a.212.212 0 0 0-.15.363l9.838 9.821a.52.52 0 0 0 .374.158zM0 1.876v12.918c0 .19.231.285.365.148L6.92 8.271.363 1.726a.213.213 0 0 0-.363.15z"/></svg>