<svg id="Layer_1" xmlns="http://www.w3.org/2000/svg" width="16.897" height="15.984"><path fill="#C4CBCD" d="M15.743 12.078c-.261 0-1.074-.943-1.285-1.154l-.964.964 2.209 2.209a.973.973 0 0 1 .281.683c0 .563-.643 1.205-1.205 1.205a.978.978 0 0 1-.683-.281L7.359 8.966c-1.054.783-2.339 1.315-3.664 1.315C1.506 10.281 0 8.765 0 6.586 0 3.293 3.293 0 6.586 0c2.18 0 3.695 1.506 3.695 3.695 0 1.325-.532 2.61-1.315 3.665l3.564 3.564.964-.964c-.211-.211-1.154-1.024-1.154-1.285 0-.231.924-1.155 1.154-1.155.08 0 .171.041.23.101.372.372 3.173 3.012 3.173 3.303 0 .23-.923 1.154-1.154 1.154zM6.426 1.928a1.928 1.928 0 0 0-1.928 1.928c0 .291.07.572.19.833a1.973 1.973 0 0 0-.833-.191 1.928 1.928 0 1 0 1.928 1.928c0-.291-.07-.572-.19-.833.261.121.542.191.833.191a1.928 1.928 0 0 0 0-3.856z"/></svg>