<svg id="Layer_1" xmlns="http://www.w3.org/2000/svg" width="18.864" height="18.863"><path fill="#00BFA5" d="M18.448 16.76c-.281.656-1.031 1.086-1.634 1.42-.791.43-1.595.684-2.492.684-1.246 0-2.371-.51-3.51-.924a12.587 12.587 0 0 1-2.345-1.112c-2.278-1.407-5.024-4.153-6.431-6.431A12.617 12.617 0 0 1 .924 8.052C.509 6.913 0 5.788 0 4.542 0 3.644.254 2.84.683 2.05c.335-.603.764-1.353 1.42-1.634C2.545.214 3.483 0 3.965 0c.095 0 .188 0 .282.04.281.094.576.75.71 1.019.429.764.844 1.541 1.286 2.291.214.349.616.777.616 1.192 0 .817-2.425 2.01-2.425 2.733 0 .361.335.831.522 1.152 1.353 2.438 3.041 4.126 5.479 5.479.322.188.791.522 1.152.522.724 0 1.916-2.425 2.733-2.425.415 0 .844.402 1.192.616.75.442 1.527.857 2.291 1.286.268.134.924.429 1.018.71.041.094.041.188.041.281.002.484-.213 1.422-.414 1.864z"/></svg>