<svg id="Layer_1" xmlns="http://www.w3.org/2000/svg" width="16.492" height="20.947"><path fill="#00BEA4" d="M7.858 17.102c-1.523-1.127-3.018-2.677-4.328-4.481C1.832 10.278.647 7.777.196 5.579c-.198-.973-.248-1.863-.141-2.58.113-.76.398-1.327.832-1.643.115-.083.234-.173.359-.27C1.952.544 2.834-.131 3.807.023c.717.114 1.344.65 1.905 1.635.722 1.27.949 2.161.724 2.894-.21.691-.779 1.093-1.38 1.523l-.209.15c-.209.152-.144.666.172 1.374.315.712.881 1.629 1.676 2.727 1.841 2.538 2.724 3.013 3.086 3.069.125.021.188-.012.231-.042.072-.049.142-.102.21-.149.663-.489 1.289-.949 2.133-.814.678.107 1.398.605 2.27 1.563.736.813 1.051 1.548.97 2.244-.116 1.017-1.058 1.662-1.813 2.182-.131.092-.258.178-.372.261-.421.307-1.034.406-1.771.289-1.096-.174-2.441-.822-3.781-1.827z"/><path fill="#00BEA4" d="M15.712 20.623c-.261-1.595-1.768-2.657-1.781-2.667a.396.396 0 0 1-.098-.546.392.392 0 0 1 .546-.103c.07.053 1.792 1.26 2.108 3.188a.388.388 0 0 1-.446.446.4.4 0 0 1-.329-.318z"/></svg>