<svg id="Phone" xmlns="http://www.w3.org/2000/svg" width="45" height="45" viewBox="338.678 110.5 45 45"><path fill="#FFF" d="M361.178 110.5c-12.427 0-22.5 10.073-22.5 22.5s10.073 22.5 22.5 22.5 22.5-10.073 22.5-22.5-10.074-22.5-22.5-22.5zm13.433 31.703c-1.034 1.601-1.934 3.261-6.258 3.358-4.418.004-8.989-3.655-12.318-7.307-3.323-3.232-6.396-7.408-6.394-11.457.1-4.324 1.76-5.224 3.36-6.258 0 0 .876-.368 1.639.295.762.663 4.103 4.005 4.103 4.005s1.188.991.369 2.089c-.652.874-2.157 2.484-2.354 2.696l.564 1.063c.755 1.244 2.194 3.43 4.349 5.201 1.453 1.195 3.911 2.506 3.91 2.504.354-.329 1.823-1.689 2.641-2.301 1.098-.82 2.088.367 2.088.367s3.342 3.343 4.006 4.105c.663.764.295 1.64.295 1.64z"/></svg>