<svg id="Layer_1" xmlns="http://www.w3.org/2000/svg" width="600" height="600"><g fill="#333"><path d="M298.473 298.13c-3.38-.838-1.53-3.789 1.209-3.745 2.658.043 4.01 2.907 5.215 2.759 1.208-.149 2.236-1.994.338-3.645-1.643-1.43-3.718-2.218-6.907-1.922-2.502.232-4.878 1.873-5.168 5.074-.29 3.203 3.431 4.829 6.377 5.273 2.064.31 4.88 1.329 3.189 3.299-1.554 1.813-4.493.692-5.266.2-.773-.495-1.644-2.269-3.094-2.17-1.452.097-2.166 2.04-.385 3.744 1.595 1.526 3.334 2.364 7.052 2.167 3.722-.198 7.054-3.546 5.749-6.7-1.303-3.153-4.925-3.496-8.309-4.334z"/><path d="M300 277.5c-12.427 0-22.5 10.073-22.5 22.5 0 12.426 10.073 22.5 22.5 22.5s22.5-10.074 22.5-22.5c0-12.427-10.073-22.5-22.5-22.5zm5.756 35.229a6.915 6.915 0 0 1-3.688-1.067c-.69.127-1.4.198-2.129.198-6.458 0-11.688-5.282-11.688-11.798 0-.631.049-1.253.145-1.859a7.111 7.111 0 0 1-1.124-3.853c0-3.909 3.121-7.078 6.975-7.078 1.405 0 2.711.423 3.81 1.149a11.348 11.348 0 0 1 1.883-.156c6.455 0 11.688 5.284 11.688 11.799 0 .541-.039 1.075-.109 1.601a7.119 7.119 0 0 1 1.212 3.987c0 3.91-3.122 7.077-6.975 7.077z"/></g></svg>