<svg id="Layer_1" xmlns="http://www.w3.org/2000/svg" width="238.892" height="238.892"><g fill="#FFF"><path d="M153.768 80.319c-24.978 15.69-49.925 31.425-74.885 47.139-2.01 1.265-3.101 2.873-2.306 5.315 3.593 11.024 7.191 22.047 10.786 33.07.5-.156.999-.315 1.499-.471.508-4.21 1.619-8.456 1.393-12.624-.417-7.655 2.813-12.654 8.521-17.603 18.473-16.013 36.429-32.621 54.502-49.092 1.763-1.607 4.662-2.638 4.417-5.828-1.457-.869-2.812-.607-3.927.094z"/><path d="M119.446 0C53.478 0 0 53.478 0 119.446c0 65.968 53.478 119.446 119.446 119.446 65.969 0 119.446-53.478 119.446-119.446C238.892 53.478 185.415 0 119.446 0zm57.905 106.34c-4.966 23.363-9.878 46.743-14.941 70.087-2.393 11.035-6.963 12.814-16.078 6.277-9.499-6.81-18.968-13.679-28.177-20.872-3.726-2.911-6.225-2.799-9.403.636-4.322 4.678-8.872 9.194-13.712 13.33-5.623 4.802-9.284 3.637-11.639-3.366-3.895-11.572-7.788-23.15-11.384-34.818-1.222-3.968-3.213-6.233-7.325-7.354-8.188-2.235-16.301-4.803-24.314-7.607-3.746-1.311-9.779-1.084-9.621-6.551.144-4.825 5.655-5.791 9.519-7.293 25.983-10.102 52.008-20.097 78.025-30.12 18.829-7.255 37.63-14.583 56.509-21.704 6.856-2.587 11.2.401 11.275 8.174-2.789 13.149-5.753 27.166-8.734 41.181z"/></g></svg>